<svg xmlns="http://www.w3.org/2000/svg" version="1.1" xmlns:xlink="http://www.w3.org/1999/xlink" xmlns:svgjs="http://svgjs.dev/svgjs" width="250" height="100" viewBox="0 0 2000 338"><g transform="matrix(1,0,0,1,-1.212079423435739,0.8384606241147026)"><svg viewBox="0 0 396 67" data-background-color="#ffffff" preserveAspectRatio="xMidYMid meet" height="338" width="2000" xmlns="http://www.w3.org/2000/svg" xmlns:xlink="http://www.w3.org/1999/xlink"><g id="tight-bounds" transform="matrix(1,0,0,1,0.2399924098688473,-0.16620373318249904)"><svg viewBox="0 0 395.5199999999999 67.332407466365" height="67.332407466365" width="395.5199999999999"><g><svg viewBox="0 0 481.695653626962 82.00275087173247" height="67.332407466365" width="395.5199999999999"><g><rect width="2.630435504013145" height="59.632970062294596" x="76.6592613061605" y="11.184890404718939" fill="#ffffff" opacity="1" stroke-width="0" stroke="transparent" fill-opacity="1" class="rect-o-0" data-fill-palette-color="primary" rx="1%" id="o-0" data-palette-color="#010c80"></rect></g><g transform="matrix(1,0,0,1,86.17565362696199,11.33323112626693)"><svg viewBox="0 0 395.52 59.33628861919861" height="59.33628861919861" width="395.52"><g id="textblocktransform"><svg viewBox="0 0 395.52 59.33628861919861" height="59.33628861919861" width="395.52" id="textblock"><g><svg viewBox="0 0 395.52 29.168389911673938" height="29.168389911673938" width="395.52"><g transform="matrix(1,0,0,1,0,0)"><svg width="395.52" viewBox="-2.049999952316284 -34.04999923706055 473.8199768066406 34.64999771118164" height="29.168389911673938" data-palette-color="#010c80"><g class="wordmark-text-0" data-fill-palette-color="primary" id="text-0"><path d="M35.45-22.9L30.55-5.9Q30.35-5.25 30.35-4.6L30.35-4.6Q30.35-4.05 30.5-3.68 30.65-3.3 30.83-3.08 31-2.85 31.05-2.75L31.05-2.75Q31.55-2.25 31.55-1.75L31.55-1.75Q31.55-1.65 31.45-1.25L31.45-1.25Q31.25-0.55 30.58-0.28 29.9 0 28.5 0L28.5 0 16.65 0Q15.6 0 15.03-0.35 14.45-0.7 14.45-1.3L14.45-1.3Q14.45-1.6 14.6-1.95L14.6-1.95Q14.75-2.35 15.03-2.58 15.3-2.8 15.8-3.1L15.8-3.1Q16.6-3.55 17.1-4.1 17.6-4.65 17.95-5.9L17.95-5.9 19.25-10.2 11.45-10.2 10.1-7.35Q9.25-5.5 9.25-4.45L9.25-4.45Q9.25-3.85 9.45-3.48 9.65-3.1 10.05-2.7L10.05-2.7Q10.4-2.3 10.53-2.02 10.65-1.75 10.55-1.3L10.55-1.3Q10.35-0.55 9.73-0.28 9.1 0 7.75 0L7.75 0 0.3 0Q-0.85 0-1.45-0.43-2.05-0.85-2.05-1.55L-2.05-1.55Q-2.05-2.35-1.48-2.83-0.9-3.3 0.25-3.85L0.25-3.85Q1.75-4.6 2.65-5.33 3.55-6.05 4.2-7.35L4.2-7.35 13.1-25.8Q15.15-30.1 17.93-32.02 20.7-33.95 25.25-33.95L25.25-33.95Q30.35-33.95 33.15-31.88 35.95-29.8 35.95-26.1L35.95-26.1Q35.95-24.55 35.45-22.9L35.45-22.9ZM13.75-15.2L20.75-15.2 23.4-24Q23.6-24.6 23.6-25.25L23.6-25.25Q23.6-26.2 23.08-26.68 22.55-27.15 21.6-27.15L21.6-27.15Q20.4-27.15 19.55-26.45 18.7-25.75 17.85-23.95L17.85-23.95 13.75-15.2ZM61.85-33.3Q67.15-33.3 70.02-31 72.9-28.7 72.9-24.9L72.9-24.9Q72.9-23.4 72.45-21.75L72.45-21.75Q71.05-16.75 66.92-14.35 62.8-11.95 56.5-11.95L56.5-11.95 51.35-11.95 49.65-5.9Q49.55-5.6 49.55-5.1L49.55-5.1Q49.55-4.4 49.87-3.95 50.2-3.5 50.85-2.9L50.85-2.9Q51.4-2.4 51.6-2.15 51.8-1.9 51.8-1.55L51.8-1.55Q51.8-0.7 51-0.35 50.2 0 48.65 0L48.65 0 36.1 0Q34.8 0 34.15-0.48 33.5-0.95 33.7-1.8L33.7-1.8Q33.8-2.25 34.07-2.53 34.35-2.8 34.9-3.15L34.9-3.15Q35.75-3.65 36.25-4.2 36.75-4.75 37.05-5.9L37.05-5.9 43.15-27.45Q43.35-28.1 43.35-28.7L43.35-28.7Q43.35-29.25 43.17-29.63 43-30 42.7-30.5L42.7-30.5Q42.25-31.15 42.25-31.55L42.25-31.55Q42.25-31.7 42.35-32.1L42.35-32.1Q42.55-32.75 43.22-33.02 43.9-33.3 45.3-33.3L45.3-33.3 61.85-33.3ZM60.55-22.65Q61.1-24.5 61.1-25.9L61.1-25.9Q61.1-28.8 58.4-28.8L58.4-28.8 56.15-28.8 52.6-16.45 54.8-16.45Q56.9-16.45 58.22-17.78 59.55-19.1 60.55-22.65L60.55-22.65ZM96-33.3Q101.3-33.3 104.17-31 107.05-28.7 107.05-24.9L107.05-24.9Q107.05-23.4 106.59-21.75L106.59-21.75Q105.19-16.75 101.07-14.35 96.95-11.95 90.65-11.95L90.65-11.95 85.5-11.95 83.8-5.9Q83.7-5.6 83.7-5.1L83.7-5.1Q83.7-4.4 84.02-3.95 84.34-3.5 85-2.9L85-2.9Q85.55-2.4 85.75-2.15 85.95-1.9 85.95-1.55L85.95-1.55Q85.95-0.7 85.15-0.35 84.34 0 82.8 0L82.8 0 70.25 0Q68.95 0 68.3-0.48 67.64-0.95 67.84-1.8L67.84-1.8Q67.95-2.25 68.22-2.53 68.5-2.8 69.05-3.15L69.05-3.15Q69.89-3.65 70.39-4.2 70.89-4.75 71.2-5.9L71.2-5.9 77.3-27.45Q77.5-28.1 77.5-28.7L77.5-28.7Q77.5-29.25 77.32-29.63 77.14-30 76.84-30.5L76.84-30.5Q76.39-31.15 76.39-31.55L76.39-31.55Q76.39-31.7 76.5-32.1L76.5-32.1Q76.7-32.75 77.37-33.02 78.05-33.3 79.45-33.3L79.45-33.3 96-33.3ZM94.7-22.65Q95.25-24.5 95.25-25.9L95.25-25.9Q95.25-28.8 92.55-28.8L92.55-28.8 90.3-28.8 86.75-16.45 88.95-16.45Q91.05-16.45 92.37-17.78 93.7-19.1 94.7-22.65L94.7-22.65ZM127.54-34.05Q133.84-34.05 137.39-31.08 140.94-28.1 140.94-22.5L140.94-22.5Q140.94-19.85 140.14-16.8L140.14-16.8Q138.64-11.2 135.49-7.3 132.34-3.4 127.99-1.4 123.64 0.6 118.54 0.6L118.54 0.6Q112.29 0.6 108.74-2.38 105.19-5.35 105.19-10.95L105.19-10.95Q105.19-13.5 106.04-16.8L106.04-16.8Q107.49-22.35 110.62-26.23 113.74-30.1 118.07-32.08 122.39-34.05 127.54-34.05L127.54-34.05ZM126.64-29.15Q125.14-29.15 123.94-27.95 122.74-26.75 121.57-24.03 120.39-21.3 119.04-16.45L119.04-16.45Q117.04-9.45 117.04-6.8L117.04-6.8Q117.04-5.25 117.59-4.55 118.14-3.85 119.34-3.85L119.34-3.85Q120.84-3.85 122.04-5.08 123.24-6.3 124.39-9 125.54-11.7 126.94-16.45L126.94-16.45Q128.89-23.35 128.89-26.15L128.89-26.15Q128.89-27.75 128.34-28.45 127.79-29.15 126.64-29.15L126.64-29.15ZM166.79-33.3Q172.09-33.3 174.97-31 177.84-28.7 177.84-24.9L177.84-24.9Q177.84-23.4 177.39-21.75L177.39-21.75Q175.99-16.75 171.87-14.35 167.74-11.95 161.44-11.95L161.44-11.95 156.29-11.95 154.59-5.9Q154.49-5.6 154.49-5.1L154.49-5.1Q154.49-4.4 154.81-3.95 155.14-3.5 155.79-2.9L155.79-2.9Q156.34-2.4 156.54-2.15 156.74-1.9 156.74-1.55L156.74-1.55Q156.74-0.7 155.94-0.35 155.14 0 153.59 0L153.59 0 141.04 0Q139.74 0 139.09-0.48 138.44-0.95 138.64-1.8L138.64-1.8Q138.74-2.25 139.02-2.53 139.29-2.8 139.84-3.15L139.84-3.15Q140.69-3.65 141.19-4.2 141.69-4.75 141.99-5.9L141.99-5.9 148.09-27.45Q148.29-28.1 148.29-28.7L148.29-28.7Q148.29-29.25 148.12-29.63 147.94-30 147.64-30.5L147.64-30.5Q147.19-31.15 147.19-31.55L147.19-31.55Q147.19-31.7 147.29-32.1L147.29-32.1Q147.49-32.75 148.16-33.02 148.84-33.3 150.24-33.3L150.24-33.3 166.79-33.3ZM165.49-22.65Q166.04-24.5 166.04-25.9L166.04-25.9Q166.04-28.8 163.34-28.8L163.34-28.8 161.09-28.8 157.54-16.45 159.74-16.45Q161.84-16.45 163.17-17.78 164.49-19.1 165.49-22.65L165.49-22.65ZM198.34-34.05Q204.64-34.05 208.19-31.08 211.74-28.1 211.74-22.5L211.74-22.5Q211.74-19.85 210.94-16.8L210.94-16.8Q209.44-11.2 206.29-7.3 203.14-3.4 198.79-1.4 194.44 0.6 189.34 0.6L189.34 0.6Q183.09 0.6 179.54-2.38 175.99-5.35 175.99-10.95L175.99-10.95Q175.99-13.5 176.84-16.8L176.84-16.8Q178.29-22.35 181.41-26.23 184.54-30.1 188.86-32.08 193.19-34.05 198.34-34.05L198.34-34.05ZM197.44-29.15Q195.94-29.15 194.74-27.95 193.54-26.75 192.36-24.03 191.19-21.3 189.84-16.45L189.84-16.45Q187.84-9.45 187.84-6.8L187.84-6.8Q187.84-5.25 188.39-4.55 188.94-3.85 190.14-3.85L190.14-3.85Q191.64-3.85 192.84-5.08 194.04-6.3 195.19-9 196.34-11.7 197.74-16.45L197.74-16.45Q199.69-23.35 199.69-26.15L199.69-26.15Q199.69-27.75 199.14-28.45 198.59-29.15 197.44-29.15L197.44-29.15ZM239.29-12.9Q240.69-12.9 241.41-12.33 242.14-11.75 242.14-10.7L242.14-10.7Q242.14-10.25 241.99-9.7L241.99-9.7 240.34-3.85Q239.69-1.7 238.51-0.85 237.34 0 235.04 0L235.04 0 211.54 0Q210.49 0 209.91-0.35 209.34-0.7 209.34-1.3L209.34-1.3Q209.34-1.6 209.49-1.95L209.49-1.95Q209.64-2.35 209.99-2.63 210.34-2.9 210.74-3.15L210.74-3.15Q211.54-3.65 212.04-4.17 212.54-4.7 212.89-5.9L212.89-5.9 218.99-27.45Q219.19-28.1 219.19-28.7L219.19-28.7Q219.19-29.25 219.01-29.63 218.84-30 218.54-30.5L218.54-30.5Q218.09-31.15 218.09-31.55L218.09-31.55Q218.09-31.7 218.19-32.1L218.19-32.1Q218.39-32.75 219.06-33.02 219.74-33.3 221.14-33.3L221.14-33.3 232.89-33.3Q233.94-33.3 234.51-32.98 235.09-32.65 235.09-32.05L235.09-32.05Q235.09-31.8 234.94-31.4L234.94-31.4Q234.79-31.05 234.51-30.78 234.24-30.5 234.01-30.38 233.79-30.25 233.69-30.15L233.69-30.15Q232.89-29.7 232.39-29.15 231.89-28.6 231.54-27.45L231.54-27.45 225.09-4.8 228.19-4.8Q229.34-4.8 230.16-5.2 230.99-5.6 231.89-6.7L231.89-6.7 235.34-10.8Q236.29-11.9 237.16-12.4 238.04-12.9 239.29-12.9L239.29-12.9ZM275.83-33.3Q277.68-33.3 278.71-32.5 279.73-31.7 279.73-30.3L279.73-30.3Q279.73-29.6 279.53-28.95L279.53-28.95 278.23-24.3Q277.88-22.95 277.21-22.43 276.53-21.9 275.28-21.9L275.28-21.9Q274.08-21.9 273.41-22.43 272.73-22.95 272.38-24.15L272.38-24.15 271.58-27Q271.33-27.9 270.98-28.2 270.63-28.5 269.63-28.5L269.63-28.5 264.38-28.5 261.88-19.6 264.08-19.6Q264.43-19.6 265.03-20.1L265.03-20.1 266.73-21.6Q267.48-22.25 268.03-22.55 268.58-22.85 269.38-22.85L269.38-22.85Q270.28-22.85 270.86-22.38 271.43-21.9 271.43-21.15L271.43-21.15Q271.43-20.95 271.33-20.55L271.33-20.55 269.28-13.6Q268.98-12.5 268.26-11.98 267.53-11.45 266.68-11.45L266.68-11.45Q265.28-11.45 264.58-12.9L264.58-12.9 263.73-14.65Q263.38-15.4 262.63-15.4L262.63-15.4 260.68-15.4 257.73-4.8 262.13-4.8Q263.08-4.8 263.81-5.18 264.53-5.55 265.38-6.5L265.38-6.5 268.38-9.8Q269.18-10.65 269.91-11.03 270.63-11.4 271.68-11.4L271.68-11.4Q272.78-11.4 273.48-10.9 274.18-10.4 274.18-9.4L274.18-9.4Q274.18-9 274.03-8.45L274.03-8.45 272.58-3.4Q272.03-1.5 270.98-0.75 269.93 0 267.93 0L267.93 0 244.08 0Q243.03 0 242.46-0.35 241.88-0.7 241.88-1.3L241.88-1.3Q241.88-1.6 242.03-1.95L242.03-1.95Q242.23-2.5 242.68-2.8 243.13-3.1 243.23-3.15L243.23-3.15Q244.03-3.65 244.53-4.17 245.03-4.7 245.38-5.9L245.38-5.9 251.53-27.45Q251.73-28.1 251.73-28.65L251.73-28.65Q251.73-29.25 251.56-29.65 251.38-30.05 251.03-30.5L251.03-30.5Q250.58-31.15 250.58-31.55L250.58-31.55Q250.58-31.7 250.68-32.1L250.68-32.1Q250.88-32.75 251.58-33.02 252.28-33.3 253.63-33.3L253.63-33.3 275.83-33.3ZM298.93-33.3Q299.98-33.3 300.56-32.98 301.13-32.65 301.13-32.05L301.13-32.05Q301.13-31.8 300.98-31.4L300.98-31.4Q300.83-31.05 300.56-30.78 300.28-30.5 300.06-30.38 299.83-30.25 299.73-30.15L299.73-30.15Q298.93-29.7 298.43-29.15 297.93-28.6 297.58-27.45L297.58-27.45 291.53-5.9Q291.33-5.25 291.33-4.65L291.33-4.65Q291.33-4.05 291.5-3.65 291.68-3.25 292.03-2.8L292.03-2.8Q292.48-2.15 292.48-1.75L292.48-1.75Q292.48-1.65 292.38-1.25L292.38-1.25Q292.18-0.55 291.48-0.28 290.78 0 289.38 0L289.38 0 277.63 0Q276.58 0 276-0.35 275.43-0.7 275.43-1.3L275.43-1.3Q275.43-1.6 275.58-1.95L275.58-1.95Q275.78-2.5 276.23-2.8 276.68-3.1 276.78-3.15L276.78-3.15Q277.58-3.65 278.08-4.17 278.58-4.7 278.93-5.9L278.93-5.9 285.03-27.45Q285.23-28.1 285.23-28.7L285.23-28.7Q285.23-29.25 285.06-29.63 284.88-30 284.58-30.5L284.58-30.5Q284.13-31.15 284.13-31.55L284.13-31.55Q284.13-31.7 284.23-32.1L284.23-32.1Q284.43-32.75 285.11-33.02 285.78-33.3 287.18-33.3L287.18-33.3 298.93-33.3ZM315.63-33.6Q318.43-33.6 320.8-32.93 323.18-32.25 325.63-30.8L325.63-30.8 326.78-31.75Q327.98-32.7 328.75-33.05 329.53-33.4 330.53-33.4L330.53-33.4Q331.73-33.4 332.43-32.88 333.13-32.35 333.13-31.35L333.13-31.35Q333.13-30.95 332.98-30.5L332.98-30.5 330.88-23.6Q330.53-22.4 330-21.9 329.48-21.4 328.43-21.4L328.43-21.4Q327.33-21.4 326.5-22.08 325.68-22.75 323.93-24.85L323.93-24.85Q322.18-26.85 320.75-27.68 319.33-28.5 317.83-28.5L317.83-28.5Q316.73-28.5 315.98-27.78 315.23-27.05 315.23-26L315.23-26Q315.23-24.8 316.43-23.78 317.63-22.75 320.18-21.2L320.18-21.2Q322.78-19.65 324.48-18.4 326.18-17.15 327.38-15.3 328.58-13.45 328.58-11.05L328.58-11.05Q328.58-9.5 328.08-7.95L328.08-7.95Q326.88-3.95 323.43-1.88 319.98 0.2 315.38 0.2L315.38 0.2Q311.93 0.2 309.58-0.6 307.23-1.4 304.78-3.3L304.78-3.3 302.98-1.8Q301.73-0.75 300.93-0.38 300.13 0 299.13 0L299.13 0Q297.98 0 297.3-0.55 296.63-1.1 296.63-2.05L296.63-2.05Q296.63-2.55 296.83-3.1L296.83-3.1 299.28-10.55Q299.68-11.85 300.38-12.4 301.08-12.95 302.18-12.95L302.18-12.95Q303.33-12.95 304.25-12.15 305.18-11.35 306.68-9.25L306.68-9.25Q308.28-6.95 309.65-6.05 311.03-5.15 312.93-5.15L312.93-5.15Q314.28-5.15 315-5.58 315.73-6 316.03-6.95L316.03-6.95Q316.13-7.2 316.13-7.7L316.13-7.7Q316.13-8.9 314.98-9.9 313.83-10.9 311.43-12.3L311.43-12.3Q308.88-13.85 307.28-15.08 305.68-16.3 304.5-18.15 303.33-20 303.33-22.5L303.33-22.5Q303.33-24.25 303.88-25.95L303.88-25.95Q304.93-29.4 308.18-31.5 311.43-33.6 315.63-33.6L315.63-33.6ZM343.48-8.2L348.93-27Q349.02-27.3 349.02-27.8L349.02-27.8Q349.02-28.6 348.6-29.1 348.18-29.6 347.27-30.2L347.27-30.2Q346.52-30.75 346.2-31.15 345.88-31.55 346.02-32.1L346.02-32.1Q346.18-32.8 346.77-33.05 347.38-33.3 348.68-33.3L348.68-33.3 362.88-33.3Q363.93-33.3 364.5-32.95 365.07-32.6 365.07-32.05L365.07-32.05Q365.07-31.8 364.93-31.4L364.93-31.4Q364.77-31.05 364.5-30.78 364.23-30.5 364-30.38 363.77-30.25 363.68-30.15L363.68-30.15Q362.88-29.7 362.38-29.15 361.88-28.6 361.52-27.45L361.52-27.45 356.63-10.15Q355.13-4.85 351.52-2.27 347.93 0.3 342.18 0.3L342.18 0.3Q338.32 0.3 335.65-0.83 332.98-1.95 331.63-3.85 330.27-5.75 330.27-8L330.27-8Q330.27-9.1 330.57-10.15L330.57-10.15Q331.23-12.4 332.8-13.55 334.38-14.7 336.32-14.7L336.32-14.7Q338.57-14.7 339.77-13.35 340.98-12 340.98-9.9L340.98-9.9Q340.98-8.85 340.68-7.8L340.68-7.8Q340.07-5.7 338.43-4.7L338.43-4.7Q339.23-4.2 340.27-4.2L340.27-4.2Q341.32-4.2 342.13-5.25 342.93-6.3 343.48-8.2L343.48-8.2ZM385.22-34.05Q391.52-34.05 395.07-31.08 398.62-28.1 398.62-22.5L398.62-22.5Q398.62-19.85 397.82-16.8L397.82-16.8Q396.32-11.2 393.17-7.3 390.02-3.4 385.67-1.4 381.32 0.6 376.22 0.6L376.22 0.6Q369.97 0.6 366.42-2.38 362.87-5.35 362.87-10.95L362.87-10.95Q362.87-13.5 363.72-16.8L363.72-16.8Q365.17-22.35 368.3-26.23 371.42-30.1 375.75-32.08 380.07-34.05 385.22-34.05L385.22-34.05ZM384.32-29.15Q382.82-29.15 381.62-27.95 380.42-26.75 379.25-24.03 378.07-21.3 376.72-16.45L376.72-16.45Q374.72-9.45 374.72-6.8L374.72-6.8Q374.72-5.25 375.27-4.55 375.82-3.85 377.02-3.85L377.02-3.85Q378.52-3.85 379.72-5.08 380.92-6.3 382.07-9 383.22-11.7 384.62-16.45L384.62-16.45Q386.57-23.35 386.57-26.15L386.57-26.15Q386.57-27.75 386.02-28.45 385.47-29.15 384.32-29.15L384.32-29.15ZM425.87-33.3Q429.27-33.3 431.79-32.27 434.32-31.25 435.64-29.48 436.97-27.7 436.97-25.4L436.97-25.4Q436.97-24.1 436.62-23L436.62-23Q435.17-17.95 428.27-16.6L428.27-16.6Q430.67-15.9 432.07-14.28 433.47-12.65 433.47-10.25L433.47-10.25Q433.47-9.15 433.07-7.65L433.07-7.65Q431.97-3.75 428.64-1.88 425.32 0 419.22 0L419.22 0 398.42 0Q397.37 0 396.79-0.35 396.22-0.7 396.22-1.3L396.22-1.3Q396.22-1.6 396.37-1.95L396.37-1.95Q396.57-2.5 397.02-2.8 397.47-3.1 397.57-3.15L397.57-3.15Q398.37-3.65 398.87-4.17 399.37-4.7 399.72-5.9L399.72-5.9 405.82-27.45Q406.02-28.1 406.02-28.7L406.02-28.7Q406.02-29.25 405.84-29.63 405.67-30 405.37-30.5L405.37-30.5Q404.92-31.15 404.92-31.55L404.92-31.55Q404.92-31.7 405.02-32.1L405.02-32.1Q405.22-32.75 405.89-33.02 406.57-33.3 407.97-33.3L407.97-33.3 425.87-33.3ZM423.62-24.15Q423.97-25.25 423.97-26.2L423.97-26.2Q423.97-28.8 421.02-28.8L421.02-28.8 418.77-28.8 416.12-19.45 418.32-19.45Q420.42-19.45 421.64-20.48 422.87-21.5 423.62-24.15L423.62-24.15ZM419.97-9.45Q420.32-10.65 420.32-11.65L420.32-11.65Q420.32-14.35 417.22-14.35L417.22-14.35 414.72-14.35 411.87-4.5 414.42-4.5Q416.57-4.5 417.87-5.58 419.17-6.65 419.97-9.45L419.97-9.45ZM454.27-33.6Q457.07-33.6 459.44-32.93 461.82-32.25 464.27-30.8L464.27-30.8 465.42-31.75Q466.62-32.7 467.39-33.05 468.17-33.4 469.17-33.4L469.17-33.4Q470.37-33.4 471.07-32.88 471.77-32.35 471.77-31.35L471.77-31.35Q471.77-30.95 471.62-30.5L471.62-30.5 469.52-23.6Q469.17-22.4 468.64-21.9 468.12-21.4 467.07-21.4L467.07-21.4Q465.97-21.4 465.14-22.08 464.32-22.75 462.57-24.85L462.57-24.85Q460.82-26.85 459.39-27.68 457.97-28.5 456.47-28.5L456.47-28.5Q455.37-28.5 454.62-27.78 453.87-27.05 453.87-26L453.87-26Q453.87-24.8 455.07-23.78 456.27-22.75 458.82-21.2L458.82-21.2Q461.42-19.65 463.12-18.4 464.82-17.15 466.02-15.3 467.22-13.45 467.22-11.05L467.22-11.05Q467.22-9.5 466.72-7.95L466.72-7.95Q465.52-3.95 462.07-1.88 458.62 0.2 454.02 0.2L454.02 0.2Q450.57 0.2 448.22-0.6 445.87-1.4 443.42-3.3L443.42-3.3 441.62-1.8Q440.37-0.75 439.57-0.38 438.77 0 437.77 0L437.77 0Q436.62 0 435.94-0.55 435.27-1.1 435.27-2.05L435.27-2.05Q435.27-2.55 435.47-3.1L435.47-3.1 437.92-10.55Q438.32-11.85 439.02-12.4 439.72-12.95 440.82-12.95L440.82-12.95Q441.97-12.95 442.89-12.15 443.82-11.35 445.32-9.25L445.32-9.25Q446.92-6.95 448.29-6.05 449.67-5.15 451.57-5.15L451.57-5.15Q452.92-5.15 453.64-5.58 454.37-6 454.67-6.95L454.67-6.95Q454.77-7.2 454.77-7.7L454.77-7.7Q454.77-8.9 453.62-9.9 452.47-10.9 450.07-12.3L450.07-12.3Q447.52-13.85 445.92-15.08 444.32-16.3 443.14-18.15 441.97-20 441.97-22.5L441.97-22.5Q441.97-24.25 442.52-25.95L442.52-25.95Q443.57-29.4 446.82-31.5 450.07-33.6 454.27-33.6L454.27-33.6Z" fill="#ffffff" data-fill-palette-color="primary"></path></g></svg></g></svg></g><g transform="matrix(1,0,0,1,0,36.05434672846228)"><svg viewBox="0 0 232.209792 23.28194189073634" height="23.28194189073634" width="232.209792"><g transform="matrix(1,0,0,1,0,0)"><svg width="232.209792" viewBox="1.100000023841858 -35.099998474121094 399.8999938964844 40.099998474121094" height="23.28194189073634" data-palette-color="#010c80"><path d="M43.9-31.95L31.95 0 29.3 0 22.3-20.15 22.05-20.15 14.55 0 11.9 0 1.1-31.95 3.75-31.95 4.35-29.3 13.25-3.15 13.5-3.15 21.15-23.75 18.3-31.95 21-31.95 21.7-29.1 30.6-3.15 30.9-3.15 40.65-29.2 41.35-31.95 43.9-31.95ZM58.15-23.05Q61.65-23.05 63.5-21.28 65.35-19.5 65.3-16.25L65.3-16.25 65.2-9.85 65.3 0 62.7 0 62.9-15.75Q62.9-18.15 61.67-19.48 60.45-20.8 58.2-20.8L58.2-20.8Q54.65-20.8 50.85-16.7L50.85-16.7 50.8-9.9 50.95 0 48.4 0 48.55-9.75 48.4-34.85 51-35.1 50.85-19.2 51.15-19.2Q52.85-20.85 54.67-21.85 56.5-22.85 58.15-23.05L58.15-23.05ZM81.65-23.1Q85.4-23.1 87.47-20.88 89.55-18.65 89.55-14.65L89.55-14.65Q89.55-13.65 89.4-12.6L89.4-12.6 89-12.15 74.2-12.05 74.2-11.3Q74.2-6.85 76.22-4.35 78.25-1.85 81.9-1.85L81.9-1.85Q83.7-1.85 85.45-2.43 87.2-3 88.55-4L88.55-4 88.9-3.8 88.55-1.55Q85.3 0.3 81.6 0.3L81.6 0.3Q77.05 0.3 74.42-2.78 71.8-5.85 71.8-11.2L71.8-11.2Q71.8-14.8 73-17.5 74.2-20.2 76.45-21.65 78.7-23.1 81.65-23.1L81.65-23.1ZM87.05-14.15L87.15-15Q87.15-17.9 85.7-19.53 84.25-21.15 81.6-21.15L81.6-21.15Q78.75-21.15 76.85-19.23 74.95-17.3 74.4-13.95L74.4-13.95 87.05-14.15ZM105.84-22.8Q106.44-22.8 107.14-22.7L107.14-22.7 107.14-20.2 106.79-20.1Q105.89-20.25 105.19-20.25L105.19-20.25Q103.49-20.25 101.99-18.82 100.49-17.4 98.94-14.2L98.94-14.2 98.94-9.9 99.09 0 96.49 0 96.64-9.75 96.54-22.55 98.99-22.85 98.99-17.75 99.24-17.75Q102.09-22.8 105.84-22.8L105.84-22.8ZM119.64-23.1Q123.39-23.1 125.47-20.88 127.54-18.65 127.54-14.65L127.54-14.65Q127.54-13.65 127.39-12.6L127.39-12.6 126.99-12.15 112.19-12.05 112.19-11.3Q112.19-6.85 114.22-4.35 116.24-1.85 119.89-1.85L119.89-1.85Q121.69-1.85 123.44-2.43 125.19-3 126.54-4L126.54-4 126.89-3.8 126.54-1.55Q123.29 0.3 119.59 0.3L119.59 0.3Q115.04 0.3 112.42-2.78 109.79-5.85 109.79-11.2L109.79-11.2Q109.79-14.8 110.99-17.5 112.19-20.2 114.44-21.65 116.69-23.1 119.64-23.1L119.64-23.1ZM125.04-14.15L125.14-15Q125.14-17.9 123.69-19.53 122.24-21.15 119.59-21.15L119.59-21.15Q116.74-21.15 114.84-19.23 112.94-17.3 112.39-13.95L112.39-13.95 125.04-14.15ZM148.14-31.95L148.04-10.6 148.09-5.8Q148.09-2.15 146.39 0.28 144.69 2.7 140.54 5L140.54 5 139.49 3.55 139.49 3.15Q142.84 1.15 144.24-0.83 145.64-2.8 145.64-5.75L145.64-5.75 145.64-10.3 145.54-29.75 139.29-29.75 138.99-30 139.19-31.95 148.14-31.95ZM164.53-23.1Q169.03-23.1 171.56-20.08 174.08-17.05 174.08-11.65L174.08-11.65Q174.08-6 171.43-2.85 168.78 0.3 164.08 0.3L164.08 0.3Q159.58 0.3 157.08-2.73 154.58-5.75 154.58-11.1L154.58-11.1Q154.58-16.75 157.21-19.93 159.83-23.1 164.53-23.1L164.53-23.1ZM164.43-21.15Q160.93-21.15 158.98-18.65 157.03-16.15 157.03-11.6L157.03-11.6Q157.03-6.8 158.91-4.23 160.78-1.65 164.18-1.65L164.18-1.65Q167.73-1.65 169.68-4.13 171.63-6.6 171.63-11.15L171.63-11.15Q171.63-15.95 169.73-18.55 167.83-21.15 164.43-21.15L164.43-21.15ZM190.83-23Q194.98-23 197.26-20.1 199.53-17.2 199.53-12L199.53-12Q199.53-6.15 196.68-2.9 193.83 0.35 188.73 0.35L188.73 0.35Q186.18 0.35 183.63-0.6L183.63-0.6 181.78 0.3 181.28 0 181.43-9.65 181.28-34.85 183.88-35.1 183.78-19.5 184.03-19.5Q187.08-22.5 190.83-23L190.83-23ZM188.88-1.65Q192.73-1.65 194.91-4.23 197.08-6.8 197.08-11.65L197.08-11.65Q197.08-16 195.41-18.4 193.73-20.8 190.63-20.8L190.63-20.8Q186.98-20.8 183.78-17L183.78-17 183.73-9.9 183.78-3.05Q186.53-1.65 188.88-1.65L188.88-1.65ZM211.98-23Q214.63-23 217.13-21.95L217.13-21.95 216.73-19.8 216.28-19.7Q213.93-21.05 211.73-21.05L211.73-21.05Q209.68-21.05 208.38-19.9 207.08-18.75 207.08-17.1L207.08-17.1Q207.08-15.5 208.28-14.58 209.48-13.65 211.93-12.55L211.93-12.55Q213.93-11.6 215.05-10.9 216.18-10.2 217-9.05 217.83-7.9 217.83-6.25L217.83-6.25Q217.83-4.5 216.9-3 215.98-1.5 214.23-0.6 212.48 0.3 210.18 0.3L210.18 0.3Q206.83 0.3 203.93-1.35L203.93-1.35 204.28-3.6 204.63-3.8Q205.88-2.75 207.4-2.2 208.93-1.65 210.33-1.65L210.33-1.65Q212.63-1.65 214.03-2.9 215.43-4.15 215.43-5.85L215.43-5.85Q215.43-7.4 214.28-8.33 213.13-9.25 210.68-10.4L210.68-10.4Q208.73-11.3 207.53-12.05 206.33-12.8 205.5-14 204.68-15.2 204.68-16.9L204.68-16.9Q204.68-19.55 206.68-21.28 208.68-23 211.98-23L211.98-23ZM242.67-29.7L236.52-29.65 236.42-17 242.27-16.95 247.37-17.05 247.62-16.75 247.32-14.75 236.42-14.8 236.37-9.85 236.47 0 233.87 0 234.02-9.7 233.87-31.95 249.87-31.95 250.12-31.65 249.82-29.55 242.67-29.7ZM254.47 0L254.57-9.75 254.52-22.55 257.02-22.85 256.97-9.9 257.02 0 254.47 0ZM255.77-32.4Q256.57-32.4 257-31.95 257.42-31.5 257.42-30.75L257.42-30.75Q257.42-29.95 256.97-29.48 256.52-29 255.72-29L255.72-29Q254.92-29 254.5-29.43 254.07-29.85 254.07-30.65L254.07-30.65Q254.07-31.45 254.52-31.93 254.97-32.4 255.77-32.4L255.77-32.4ZM280.42 0L280.57-15.75Q280.62-18.15 279.39-19.48 278.17-20.8 275.92-20.8L275.92-20.8Q274.12-20.8 272.22-19.73 270.32-18.65 268.57-16.65L268.57-16.65 268.52-9.9 268.67 0 266.07 0 266.22-9.75 266.12-22.55 268.57-22.85 268.57-19.2 268.82-19.2Q270.52-20.85 272.34-21.85 274.17-22.85 275.87-23.05L275.87-23.05Q279.32-23.05 281.17-21.28 283.02-19.5 282.97-16.25L282.97-16.25 282.92-9.85 283.02 0 280.42 0ZM307.76-35.1L307.56-9.9 307.67-4.35Q307.67-3.05 308.01-2.53 308.37-2 309.26-2L309.26-2Q310.12-2 311.12-2.5L311.12-2.5 311.46-2.25 311.17-0.6Q309.96 0.15 308.62 0.2L308.62 0.2Q305.76 0.1 305.51-3.35L305.51-3.35 305.26-3.35Q303.71-1.8 302.26-0.95 300.81-0.1 299.01 0.25L299.01 0.25Q294.51 0.25 292.01-2.75 289.51-5.75 289.51-11.15L289.51-11.15Q289.51-16.85 292.37-19.98 295.21-23.1 300.37-23.1L300.37-23.1Q302.51-23.1 305.21-22.45L305.21-22.45 305.21-34.85 307.76-35.1ZM300.12-21.15Q296.26-21.15 294.12-18.65 291.96-16.15 291.96-11.5L291.96-11.5Q291.96-7 293.81-4.5 295.67-2 298.92-2L298.92-2Q300.67-2 302.21-2.88 303.76-3.75 305.26-5.65L305.26-5.65 305.31-9.7 305.21-20.05Q302.56-21.15 300.12-21.15L300.12-21.15ZM334.91-11.9L334.86-9.55 334.96 0 332.36 0 332.46-9.55 332.41-11.8 322.31-31.95 325.21-31.95 325.81-30.4 333.61-14.9 333.91-14.9 342.41-30.35 343.06-31.95 345.91-31.95 334.91-11.9ZM356.21-23.1Q360.71-23.1 363.23-20.08 365.76-17.05 365.76-11.65L365.76-11.65Q365.76-6 363.11-2.85 360.46 0.3 355.76 0.3L355.76 0.3Q351.26 0.3 348.76-2.73 346.26-5.75 346.26-11.1L346.26-11.1Q346.26-16.75 348.88-19.93 351.51-23.1 356.21-23.1L356.21-23.1ZM356.11-21.15Q352.61-21.15 350.66-18.65 348.71-16.15 348.71-11.6L348.71-11.6Q348.71-6.8 350.58-4.23 352.46-1.65 355.86-1.65L355.86-1.65Q359.41-1.65 361.36-4.13 363.31-6.6 363.31-11.15L363.31-11.15Q363.31-15.95 361.41-18.55 359.51-21.15 356.11-21.15L356.11-21.15ZM392.06-2.5L392.4-2.25 392.11-0.6Q390.9 0.1 389.56 0.2L389.56 0.2Q388.11 0.1 387.31-0.8 386.5-1.7 386.31-3.55L386.31-3.55 386.11-3.55Q382.7-0.15 379.11 0.25L379.11 0.25Q375.81 0.25 374.06-1.5 372.31-3.25 372.31-6.55L372.31-6.55 372.36-12 372.25-22.55 374.86-22.85 374.7-7.05Q374.7-4.65 375.83-3.33 376.95-2 379.11-2L379.11-2Q382.7-2 386.2-5.75L386.2-5.75 386.2-22.55 388.65-22.85 388.56-4.45Q388.56-3.15 388.93-2.58 389.31-2 390.15-2L390.15-2Q391.06-2 392.06-2.5L392.06-2.5ZM399.35-3.25Q400.15-3.25 400.58-2.8 401-2.35 401-1.6L401-1.6Q401-0.8 400.55-0.33 400.1 0.15 399.3 0.15L399.3 0.15Q398.5 0.15 398.08-0.28 397.65-0.7 397.65-1.5L397.65-1.5Q397.65-2.3 398.1-2.78 398.55-3.25 399.35-3.25L399.35-3.25Z" opacity="1" transform="matrix(1,0,0,1,0,0)" fill="#ffffff" class="slogan-text-1" data-fill-palette-color="secondary" id="text-1"></path></svg></g></svg></g></svg></g></svg></g><g><svg viewBox="0 0 69.77330448937217 82.00275087173247" height="82.00275087173247" width="69.77330448937217"><g><svg xmlns="http://www.w3.org/2000/svg" xmlns:xlink="http://www.w3.org/1999/xlink" version="1.1" x="0" y="0" viewBox="18.700000762939453 12.699999809265137 63.89999771118164 75.10000610351562" enable-background="new 0 0 100 100" xml:space="preserve" height="82.00275087173247" width="69.77330448937217" class="icon-icon-0" data-fill-palette-color="accent" id="icon-0"><path d="M82.6 12.7L18.7 31.2l22.1 56.6 13.6-34.6 1.7 0.7c1.2 0.5 2.5-0.1 2.9-1.2l0 0c0.5-1.2-0.1-2.5-1.2-2.9L56.1 49l0.7-1.7 0.5-0.6 1.6 0.7c1.1 0.5 2.4 0 3-1.1 0.6-1.2 0-2.6-1.2-3L60 42.9 82.6 12.7zM56 46.8l-0.7 1.8-6.9-2.9 1-2.4 7 2.9L56 46.8 56 46.8zM44.1 39.5l0.2 0.5-0.5 0.2-3.2 1.4-0.5 0.2-2.9 1.3c-0.6 0.3-1.2 0.3-1.8 0.1s-1-0.7-1.3-1.2c-0.3-0.6-0.3-1.3 0-1.8 0.2-0.5 0.7-1 1.2-1.2l2.9-1.3-2-4.3L36 32.9l0 0-4 9.6c-0.3 0.7-0.3 1.5 0 2.3l1.7 3.7-3.3 1.5c-0.9 0.4-1.3 1.4-1 2.3 0.4 0.9 1.5 1.3 2.4 0.9l3.4-1.5 0 0 3.2-1.4-2-4.6 17.2 7.2L40.8 85.3 20 31.9l60.2-17.5-21 28.2-16.9-7L44.1 39.5zM41 33.9l2.6 5.8-3.2 1.4 0 0L37 42.7c-0.9 0.4-1.9 0-2.3-0.9-0.2-0.5-0.2-1 0-1.4 0.2-0.4 0.5-0.7 0.9-0.9l3.4-1.5-2.2-4.8 1-0.5C38.9 32.1 40.4 32.7 41 33.9zM30.7 33c1.7 0.7 2.6 2.7 1.8 4.5-0.7 1.7-2.7 2.6-4.5 1.8-1.7-0.7-2.6-2.7-1.8-4.5C27 33.1 29 32.3 30.7 33z" fill="#ffffff" data-fill-palette-color="accent"></path></svg></g></svg></g></svg></g><defs></defs></svg><rect width="395.5199999999999" height="67.332407466365" fill="none" stroke="none" visibility="hidden"></rect></g></svg></g></svg>