<svg xmlns="http://www.w3.org/2000/svg" version="1.1" xmlns:xlink="http://www.w3.org/1999/xlink" xmlns:svgjs="http://svgjs.dev/svgjs" width="154" height="50" viewBox="0 0 1000 623"><g transform="matrix(1,0,0,1,-0.6060606060606233,0.2522267206477409)"><svg viewBox="0 0 396 247" data-background-color="#0023ff" preserveAspectRatio="xMidYMid meet" height="623" width="1000" xmlns="http://www.w3.org/2000/svg" xmlns:xlink="http://www.w3.org/1999/xlink"><g id="tight-bounds" transform="matrix(1,0,0,1,0.2400000000000091,-0.09999999999999432)"><svg viewBox="0 0 395.52 247.2" height="247.2" width="395.52"><g><svg></svg></g><g><svg viewBox="0 0 395.52 247.2" height="247.2" width="395.52"><mask id="e1a14221-372a-4a6c-a5d2-36f58c55f7fb"><rect width="640" height="400" fill="white"></rect><g transform="matrix(1,0,0,1,123.65899683544302,37.08)"><svg viewBox="0 0 148.20200632911394 173.04" height="173.04" width="148.20200632911394"><g><svg viewBox="0 0 148.20200632911394 173.04" height="173.04" width="148.20200632911394"><g><svg viewBox="0 0 148.20200632911394 173.04" height="173.04" width="148.20200632911394"><g><svg viewBox="0 0 148.20200632911394 173.04" height="173.04" width="148.20200632911394"><g id="SvgjsG1599"><svg viewBox="0 0 148.20200632911394 173.04" height="173.04" width="148.20200632911394" id="SvgjsSvg1598"><g><svg viewBox="0 0 148.20200632911394 173.04" height="173.04" width="148.20200632911394"><g transform="matrix(1,0,0,1,0,0)"><svg width="148.20200632911394" viewBox="-3.65625 -43.95000076293945 41.596248626708984 48.400001525878906" height="173.04" data-palette-color="#f8fafc"><path d="M28.15-1.2L17.15-34.8 6.2-1.2 6.2-1.25Q5.9-0.5 5.38-0.03 4.85 0.45 4.1 0.45L4.1 0.45Q3.7 0.45 3.33 0.38 2.95 0.3 2.55 0.2L2.55 0.2 2.6 0.2Q-0.25-0.7 0.5-3L0.5-3 11.9-37.65Q12.15-38.45 12.78-39 13.4-39.55 14.25-39.65L14.25-39.65Q15.1-39.8 15.9-39.88 16.7-39.95 17.15-39.95L17.15-39.95Q17.6-39.95 18.4-39.88 19.2-39.8 20.05-39.7L20.05-39.7Q20.75-39.6 21.43-38.95 22.1-38.3 22.45-37.65L22.45-37.65Q25.25-29.05 28.13-20.33 31-11.6 33.8-3L33.8-3Q34.5-0.7 31.7 0.2L31.7 0.2Q31.3 0.3 30.98 0.38 30.65 0.45 30.25 0.45L30.25 0.45Q29.55 0.45 28.98-0.03 28.4-0.5 28.15-1.25L28.15-1.25 28.15-1.2ZM20.9-12L20.9-12Q20.9-10.4 19.78-9.28 18.65-8.15 17.05-8.15L17.05-8.15Q15.45-8.15 14.35-9.28 13.25-10.4 13.25-12L13.25-12Q13.25-13.6 14.35-14.73 15.45-15.85 17.05-15.85L17.05-15.85Q18.65-15.85 19.78-14.73 20.9-13.6 20.9-12Z" opacity="1" transform="matrix(1,0,0,1,0,0)" fill="black" class="wordmark-text-0" id="SvgjsPath1597" stroke-width="7" stroke="black" stroke-linejoin="round"></path></svg></g></svg></g></svg></g></svg></g></svg></g></svg></g></svg></g></mask><g transform="matrix(1,0,0,1,123.65899683544302,37.08)"><svg viewBox="0 0 148.20200632911394 173.04" height="173.04" width="148.20200632911394"><g><svg viewBox="0 0 148.20200632911394 173.04" height="173.04" width="148.20200632911394"><g><svg viewBox="0 0 148.20200632911394 173.04" height="173.04" width="148.20200632911394"><g><svg viewBox="0 0 148.20200632911394 173.04" height="173.04" width="148.20200632911394"><g id="textblocktransform"><svg viewBox="0 0 148.20200632911394 173.04" height="173.04" width="148.20200632911394" id="textblock"><g><svg viewBox="0 0 148.20200632911394 173.04" height="173.04" width="148.20200632911394"><g transform="matrix(1,0,0,1,0,0)"><svg width="148.20200632911394" viewBox="-3.65625 -43.95000076293945 41.596248626708984 48.400001525878906" height="173.04" data-palette-color="#f8fafc"><path d="M28.15-1.2L17.15-34.8 6.2-1.2 6.2-1.25Q5.9-0.5 5.38-0.03 4.85 0.45 4.1 0.45L4.1 0.45Q3.7 0.45 3.33 0.38 2.95 0.3 2.55 0.2L2.55 0.2 2.6 0.2Q-0.25-0.7 0.5-3L0.5-3 11.9-37.65Q12.15-38.45 12.78-39 13.4-39.55 14.25-39.65L14.25-39.65Q15.1-39.8 15.9-39.88 16.7-39.95 17.15-39.95L17.15-39.95Q17.6-39.95 18.4-39.88 19.2-39.8 20.05-39.7L20.05-39.7Q20.75-39.6 21.43-38.95 22.1-38.3 22.45-37.65L22.45-37.65Q25.25-29.05 28.13-20.33 31-11.6 33.8-3L33.8-3Q34.5-0.7 31.7 0.2L31.7 0.2Q31.3 0.3 30.98 0.38 30.65 0.45 30.25 0.45L30.25 0.45Q29.55 0.45 28.98-0.03 28.4-0.5 28.15-1.25L28.15-1.25 28.15-1.2ZM20.9-12L20.9-12Q20.9-10.4 19.78-9.28 18.65-8.15 17.05-8.15L17.05-8.15Q15.45-8.15 14.35-9.28 13.25-10.4 13.25-12L13.25-12Q13.25-13.6 14.35-14.73 15.45-15.85 17.05-15.85L17.05-15.85Q18.65-15.85 19.78-14.73 20.9-13.6 20.9-12Z" opacity="1" transform="matrix(1,0,0,1,0,0)" fill="#f8fafc" class="wordmark-text-0" data-fill-palette-color="primary" id="text-0"></path></svg></g></svg></g></svg></g></svg></g></svg></g></svg></g></svg></g><g mask="url(#e1a14221-372a-4a6c-a5d2-36f58c55f7fb)"><g transform="matrix(2.5856250854799185, 0, 0, 2.5856250854799185, 125.60569889185844, 0.9999999999999858)"><svg xmlns="http://www.w3.org/2000/svg" xmlns:xlink="http://www.w3.org/1999/xlink" version="1.1" x="0" y="0" viewBox="20.884765625 2.5829999446868896 55.81188201904297 94.83200073242188" enable-background="new 0 0 100 100" xml:space="preserve" height="94.83200073242188" width="55.81188201904297" class="icon-none" data-fill-palette-color="accent" id="none"><path fill="#f8fafc" d="M35.443 2.583c0 0 14.836 10.48 0 32.011-13.407 19.457-21.41 40.113-6.609 55.539 4.288 4.47 9.373 6.745 14.568 7.282-8.4-2.451-14.658-10.83-7.364-25.817 4.486-9.218 15.658-20.073 11.938-32.859 0 0 10.057 12.669 3.208 31.977-3.111 8.77 10.599 9.728 6.885 0.154-2.246-5.785 10.602 11.497 3.683 21.482 6.529-4.512 10.063-11.938 12.655-19.868C81.76 50 72.084 13.733 35.443 2.583z" data-fill-palette-color="accent"></path></svg></g></g></svg></g><defs></defs></svg><rect width="395.52" height="247.2" fill="none" stroke="none" visibility="hidden"></rect></g></svg></g></svg>